# xmcd
#
# Track frame offsets: 
#        150
#        14014
#        31515
#        43550
#        56948
#        71595
#        84687
#        106348
#        131288
#        149015
#        169178
#        183015
#        200530
#        215001
#        228096
#        249669
#        274616
#
# Disc length: 3896 seconds
#
# Revision: 0
# Processed by: cddbd v1.5.2PL0 Copyright (c) Steve Scherf et al.
# Submitted via: ExactAudioCopy v0.95b4
#
DISCID=f20f3611
DTITLE=Terry Fator - Lucky Guy (2007 Remix)
DYEAR=2007
DGENRE=A Cappella
TTITLE0=I Remember The Days
TTITLE1=I Do
TTITLE2=Candi's Got A Radio
TTITLE3=Can You Fix A Broken Heart
TTITLE4=Lucky Guy
TTITLE5='96 Neon
TTITLE6=Horses In Heaven
TTITLE7=(How Do I Say) Goodbye
TTITLE8=I Can't Believe It's Over
TTITLE9=Monkey Song
TTITLE10=I Remember The Days (Instrumental)
TTITLE11=I Do (Instrumental)
TTITLE12=Lucky Guy (Instrumental)
TTITLE13='96 Neon (Instrumental)
TTITLE14=Horses In Heaven (Instrumental)
TTITLE15=(How Do I Say) Goodbye (Instrumental)
TTITLE16=I Can't Believe It's Over (Instrumental)
EXTD=
EXTT0=
EXTT1=
EXTT2=
EXTT3=
EXTT4=
EXTT5=
EXTT6=
EXTT7=
EXTT8=
EXTT9=
EXTT10=
EXTT11=
EXTT12=
EXTT13=
EXTT14=
EXTT15=
EXTT16=
PLAYORDER=
